<svg width="60" height="62" viewBox="0 0 60 62" fill="none" xmlns="http://www.w3.org/2000/svg">
<path d="M39.125 3.19397C42.143 1.63604 45.0891 0.834572 48.518 0.734895C58.9542 0.329487 62.1781 9.82769 58.5894 18.0896C58.0207 19.3989 57.2635 20.6053 56.4714 21.7986C57.864 25.3795 55.8106 27.5509 52.0363 26.3291C49.7242 27.2673 48.7066 27.8142 45.9417 27.6647C45.0687 30.9147 40.8092 29.189 38.6494 28.4467C36.8698 29.6874 35.2387 31.101 33.5271 32.4208C27.9561 36.7165 22.5475 41.1876 17.164 45.6947L12.3132 49.7391C9.78451 51.8806 7.65953 54.6685 4.21915 51.7717C1.12397 53.2414 1.30146 56.3227 4.08823 57.9796C6.32141 59.2653 10.7829 58.7201 11.629 59.7912C11.9649 60.2164 11.8383 60.8363 11.3762 61.1275C10.7451 61.5252 10.0927 61.0169 9.44663 60.9309C8.3416 60.7834 7.23315 60.8512 6.11931 60.6405C0.204013 59.5218 -2.48697 53.6912 2.93473 50.307C2.19726 47.5933 3.37793 46.8529 5.08427 45.0193L27.1304 21.4637C28.0621 20.4637 29.0094 19.4766 29.9172 18.4566C29.4824 17.0304 28.4891 12.8868 30.7468 12.296C31.5021 9.75429 32.0813 8.77132 33.3539 6.59797C32.9007 4.93794 34.0212 3.11957 35.7058 2.58652C36.9869 2.18114 37.9935 2.65173 39.125 3.19397ZM47.9452 2.57636C45.3046 2.75683 43.0858 3.25909 40.7392 4.45938C44.9211 7.13412 50.6908 13.6962 53.526 17.4998C54.1342 18.3381 54.8379 19.1832 55.3153 20.0962C60.043 13.1894 59.0813 1.59915 47.9452 2.57636ZM36.6296 4.29376C34.5541 4.72401 35.4467 6.02982 35.0697 7.10514C34.4055 8.99981 33.2265 10.1912 32.7725 12.4497C39.0742 14.3218 44.0419 19.9056 45.8417 25.8923C47.598 25.8948 49.1276 25.6878 50.7074 24.9079C53.0571 23.7936 53.3862 25.2761 54.4401 24.7823C55.5945 24.2413 54.6903 22.7381 54.2686 22.0391C50.7255 16.1677 45.6992 10.7469 40.2505 6.42293C39.3443 5.70384 37.8858 4.26038 36.6296 4.29376ZM31.2866 14.1239C31.1724 14.7849 31.2683 15.4975 31.3783 16.1536C32.2089 21.1056 35.4558 25.2697 40.4152 27.0828C41.3531 27.4256 42.8852 28.0157 43.879 27.583C44.4909 26.7557 43.4573 24.7289 43.0846 23.9702C41.3541 20.4472 35.8231 14.1542 31.2866 14.1239ZM30.6343 20.4349L7.57904 45.1322C6.85705 45.9107 4.52105 47.874 4.61468 48.9528C4.7087 50.0361 6.15661 51.2671 7.31575 51.1275C8.04758 51.0394 8.81119 50.2286 9.35734 49.7777C16.3459 43.9769 23.2155 38.0703 30.3784 32.4641L34.2566 29.4125C35.0927 28.7474 35.9084 28.0364 36.7958 27.4343C34.603 26.2394 32.7799 24.1712 31.5328 22.1032C31.3432 21.7888 30.7865 20.5839 30.6343 20.4349Z" fill="#111111"/>
<path d="M24.9379 35.1551C23.3639 35.3573 21.8991 34.5508 21.6447 32.9838C21.3733 31.3113 22.8018 30.3598 23.8653 29.3001C25.077 28.0926 26.2808 26.2134 28.1474 25.9405C30.349 25.8205 32.2521 28.1393 31.1065 30.0716C30.5782 30.9625 26.1626 34.8324 24.9379 35.1551ZM28.2282 27.8175C27.1905 28.3309 26.5015 29.3666 25.6143 30.0789C26.1146 30.5294 26.5648 30.9787 26.9874 31.4976C27.4731 31.1192 29.3078 29.3663 29.5995 28.9056C29.3737 28.2807 28.9851 27.7382 28.2282 27.8175ZM24.1156 31.655C23.07 32.2088 23.4874 33.643 24.6632 33.3233C25.767 32.7836 25.2432 31.6288 24.1156 31.655Z" fill="#111111"/>
<path d="M33.2291 41.5758C33.6088 39.785 33.5867 33.7166 35.2422 33.2301C36.4703 33.1566 38.9027 35.0074 39.5463 35.7608C39.9894 36.2796 39.7884 37.166 39.0436 37.3117C38.2353 37.4699 36.953 36.0219 36.0995 35.5096C35.5494 38.076 35.367 40.7027 35.0323 43.2989C34.8455 44.7475 34.9313 46.9155 33.3872 47.7345C31.5045 48.733 29.8543 47.951 28.8753 46.2783C27.8556 47.8798 26.7748 50.9137 26.0407 52.7021C24.8193 55.1671 21.0464 54.7553 20.4878 52.3566C19.8889 49.7846 23.2031 48.5411 25.2038 49.8244C25.6709 48.5474 28.045 42.8881 28.8522 41.7654C29.6918 40.5975 32.1346 41.1258 33.2291 41.5758ZM29.8364 44.0217C30.7673 43.2075 31.016 43.543 31.6762 43.248L31.6909 43.1973L31.4975 43.0677C31.1569 42.8721 30.8648 42.8785 30.486 42.922C30.2453 43.2746 30.0144 43.6356 29.8364 44.0217ZM31.6359 45.113C30.8896 45.238 30.5782 45.697 31.2458 46.1541C31.5579 46.162 31.864 46.1738 32.1731 46.1235C33.4306 45.7269 32.6424 45.0214 31.6359 45.113ZM23.0168 51.2659C21.7042 51.591 22.4553 52.4661 23.7185 52.3712C25.0653 52.0297 24.0163 51.2201 23.0168 51.2659Z" fill="#111111"/>
</svg>
