<svg width="60" height="62" viewBox="0 0 60 62" fill="none" xmlns="http://www.w3.org/2000/svg">
<path d="M25.9171 4.87797C26.4304 3.02269 27.0262 1.09231 29.7034 0.740362C32.7668 0.493715 33.8602 2.82707 34.341 4.87069C37.063 4.88175 40.5635 5.42408 41.9237 7.64314L52.7551 7.63104C55.9029 7.61646 58.9148 8.90885 59.6625 11.5327C59.9289 12.4681 59.8707 13.4844 59.8703 14.4405L59.9929 35.4878C59.9935 36.3972 60.0519 37.3479 59.8229 38.2414C58.8473 42.0495 53.5124 42.411 49.7231 42.461L30.638 42.5193C23.1198 42.4009 15.6288 42.5554 8.09284 42.4229C0.654607 42.2922 0.0754424 39.6344 0.0838938 34.2463L0.0853294 18.908C0.0850105 16.0282 -0.631131 11.3272 2.09151 9.2298C4.65756 7.25282 8.23381 7.64588 11.472 7.64497C13.6888 7.64431 15.9175 7.60618 18.1327 7.66006C20.2145 5.09637 22.7097 5.06942 25.9171 4.87797ZM29.8513 2.44248C27.6136 3.21557 28.6001 5.85918 26.9354 6.50329C25.4681 7.07126 23.3551 6.18039 20.8327 7.65941C23.9508 7.64327 27.0855 7.59147 30.202 7.65941C33.2094 7.60696 36.2253 7.64314 39.2337 7.64353C38.6225 7.3287 38.0025 6.9851 37.2974 6.82827C36.2011 6.58424 33.6269 6.8327 32.9125 6.24989C31.8004 5.34248 32.2539 2.23163 29.8513 2.44248ZM6.76389 9.3688C1.23409 9.81717 2.18273 13.9842 2.18241 17.3562L2.18655 33.1686C2.18735 35.0866 1.59941 38.5227 3.62968 39.8425C5.50813 41.0637 11.8564 40.7903 14.3598 40.7904L42.0718 40.7905C45.7817 40.7913 49.5126 40.8609 53.2137 40.6242C57.3626 40.1118 57.881 38.4685 57.8826 35.5836L57.8823 16.749C57.8855 13.832 58.6789 9.70719 53.6288 9.36789C52.6754 9.30386 51.6821 9.35045 50.7242 9.3511L9.07369 9.3524C8.32071 9.35227 7.51144 9.3062 6.76389 9.3688Z" fill="#111111"/>
<path d="M37.6893 20.7265C32.5019 21.3008 31.6229 15.4747 36.4282 14.7298C41.2603 14.3883 42.4588 19.8482 37.6893 20.7265ZM36.8587 16.4369C34.5918 16.9153 34.9085 19.1509 37.1277 19.0716C39.3854 18.7226 38.9617 16.288 36.8587 16.4369Z" fill="#111111"/>
<path d="M42.1244 36.1644C39.1278 36.36 36.0794 36.5944 33.0778 36.5991C28.1999 36.6068 22.544 36.1044 17.5643 35.9081C14.8903 35.8027 7.36533 36.8283 6.95902 33.8667C6.63069 31.4738 10.2993 30.1111 12.3102 29.0448C15.7981 27.1954 16.4679 25.7149 18.9336 23.1521C19.9993 22.0446 21.249 21.1319 23.0203 20.9588C28.3087 20.7423 26.3215 28.0233 29.8492 27.634C31.6725 27.4328 32.981 25.9163 34.1692 24.9043C40.687 19.3538 47.0564 26.6576 50.5723 30.7943C51.3006 31.6511 52.6056 32.7917 52.7275 33.8795C53.022 36.5096 46.784 36.016 44.9025 36.0427C43.9764 36.0559 43.0486 36.114 42.1244 36.1644ZM23.2035 22.7073C21.1166 22.9392 19.7402 25.2088 18.6085 26.4825C17.3216 27.9312 15.8278 29.1742 14.0187 30.1891C12.5445 31.0161 8.95468 32.1395 9.14364 33.8191C9.58121 34.3459 15.7924 34.1357 16.7531 34.1667C19.6553 34.2603 22.5783 34.3213 25.4747 34.4901C28.5801 34.6711 31.6652 35.0163 34.7863 34.8805C37.1018 34.7797 39.4072 34.5317 41.7254 34.4525C44.3484 34.3696 48.1415 34.4066 50.5958 34.0651C50.0413 33.1989 49.323 32.3938 48.6518 31.586C35.9831 16.3357 36.017 31.0888 28.5375 29.2516C24.8616 28.3488 25.6503 22.7049 23.2035 22.7073Z" fill="#111111"/>
<path d="M22.5249 45.1496C20.5616 45.0968 18.5871 45.1308 16.6227 45.1315C15.7208 45.1317 12.5931 45.4575 12.4836 44.3118C12.4137 43.5797 13.3761 43.396 14.0731 43.3735C15.2378 43.4514 16.4267 43.4137 17.5957 43.4134L41.1724 43.4126C42.8699 43.4124 47.5558 42.8471 48.2544 44.1125C47.7292 45.5719 44.9934 45.1335 43.4304 45.1332C41.4469 45.1329 39.474 45.1389 37.4921 45.0643C39.666 48.8492 41.6178 52.7214 43.7326 56.5292C44.2896 57.5322 45.5068 58.7911 44.9464 59.9364C44.4594 60.9317 42.8694 61.5716 41.628 61.1416C40.0782 60.6046 39.3643 58.0872 38.7607 56.9372C36.8537 53.3042 35.1542 49.5998 33.2453 45.9708C33.1046 45.71 32.9734 45.4512 32.8611 45.1813L31.2949 45.1395L31.3606 51.8596C31.3606 52.78 31.4542 53.7763 31.3289 54.689C31.1906 55.6955 29.9084 55.6864 29.3157 54.9776C29.1578 53.861 29.2608 52.6539 29.2616 51.527L29.2615 45.1423C28.6268 45.1459 27.0985 45.04 26.8447 45.493C26.2006 46.6426 25.7066 47.878 25.1362 49.0551L21.0167 57.546C20.4763 58.6939 19.9851 60.5872 18.4344 61.0742C17.2191 61.4558 15.7637 60.8933 15.3325 59.8927C14.8611 58.7983 15.6704 57.7345 16.1793 56.7565C18.18 52.9104 20.3068 48.8925 22.5249 45.1496ZM35.1408 45.0954C35.0214 45.6105 36.9875 49.1078 37.3254 49.7839L41.7022 58.3198C41.8626 58.6373 42.1917 59.805 42.8134 59.5016C43.2351 59.0144 42.1633 57.6498 41.8983 57.1736L39.5813 53.0665C39.0538 52.1085 35.7734 45.4002 35.1408 45.0954ZM24.779 45.1166C24.2909 45.4239 23.764 46.8634 23.4882 47.3681L18.8348 56.0422C18.4768 56.7173 16.8043 58.9393 17.4408 59.4593C18.3157 59.4934 19.4563 56.3487 19.8411 55.5586L23.8068 47.3617C23.9664 47.0323 25.2021 45.2698 24.779 45.1166Z" fill="#111111"/>
</svg>
