<svg width="60" height="62" viewBox="0 0 60 62" fill="none" xmlns="http://www.w3.org/2000/svg">
<path d="M12.0731 38.2217C11.5131 37.6726 11.0133 37.06 10.5281 36.4482C-0.496029 22.5455 8.39646 1.95286 27.0296 0.807595C33.3187 0.187558 40.4606 3.01439 44.9414 7.18963C45.753 7.94601 48.6019 11.0493 48.589 11.98C48.5818 12.4993 47.9594 12.9587 47.4489 12.9105C46.6525 12.8354 46.0994 11.7616 45.6739 11.2103C38.5144 1.93105 24.1089 -0.14515 14.9773 7.61598C5.94686 15.2914 5.63236 27.8804 13.3821 36.5104C14.9953 33.9872 16.704 31.6179 18.2949 29.0481C19.2894 27.4417 20.2645 26.5118 19.0457 24.6749C15.5979 19.4785 17.7414 16.4971 20.1702 11.3773C20.594 10.4839 21.4761 7.57946 22.6186 7.39444C24.749 7.04956 23.3243 9.75028 23.0087 10.4392C21.3689 14.0182 17.9165 18.5662 20.1966 22.4804C20.828 23.564 21.5513 24.4437 21.7133 25.7275C22.0115 28.0899 20.169 30.2218 18.9641 32.0925C17.1546 34.902 15.2123 37.7245 13.1236 40.3439C9.87548 44.4167 6.32967 48.2599 3.07348 52.3245C1.13205 54.7479 2.8673 57.4477 5.31978 57.0891C7.44884 56.7778 9.42944 52.8045 10.403 51.2016C12.9893 46.9436 15.4284 42.5473 17.5835 38.0661C18.9425 35.2402 20.077 32.4949 21.547 29.6915C21.9893 28.848 22.4046 27.9143 22.9866 27.1542C24.2047 25.5632 26.9931 27.6338 30.5282 22.6487C29.5949 23.1458 28.4664 23.1043 27.6161 22.432C25.7802 20.9802 27.8022 18.379 28.5517 16.8943L30.1068 13.7515C30.5785 12.7954 31.3707 10.1209 32.8857 11.609C33.4828 12.1956 32.7358 13.2006 32.465 13.7706C31.5207 15.7589 30.304 17.8463 29.4491 19.7888C28.9721 20.8725 29.3034 21.2474 30.2633 20.4365C32.0195 18.953 32.7565 16.6468 33.5385 14.5957C33.8562 13.7627 34.2395 11.9717 35.5473 12.5146C35.9301 12.6733 36.1181 12.923 36.2669 13.2867C36.1405 13.7711 35.9274 14.2374 35.7492 14.7058L34.8346 17.1448C32.929 22.3488 31.549 28.1224 24.5959 28.5747C23.5173 30.3088 22.0186 33.2552 21.2706 35.1888C23.0888 36.4807 25.1727 37.1883 27.3999 37.4181C31.2163 37.8752 35.4456 36.5761 38.2093 33.9739C35.2178 28.3705 35.8662 23.4477 37.7855 17.487C38.8733 14.1087 38.3561 14.3642 42.0808 14.4893C42.738 14.5113 43.3995 14.4988 44.0572 14.499L52.9897 14.4994C53.6905 14.4992 56.7035 14.2942 57.1548 14.6206C57.8946 15.1556 59.0696 18.9743 59.3252 19.9663C61.4419 28.176 58.7321 38.4439 49.0142 39.8352C48.894 44.8761 48.9463 50.1328 49.0065 55.1778C51.1639 55.7313 54.7046 57.2636 55.3794 59.4782C54.5569 61.9989 45.1549 61.2421 43.1274 60.8987C40.9606 60.5316 39.3864 60.0046 41.4246 57.9914C42.9064 56.5277 44.8847 55.6576 46.8915 55.1093C46.6888 50.3997 46.7115 44.6101 46.8917 39.8977C43.7304 39.445 41.5317 38.0441 39.4671 35.7229C34.1084 40.3425 26.3882 40.8731 20.4201 37.1076C19.8019 38.3832 19.1455 39.6411 18.5348 40.9199C24.3452 44.6095 33.3627 44.3785 39.2439 41.0073C39.8851 40.6396 40.7587 39.914 41.5457 40.2723C42.0991 40.5242 42.2826 41.1707 41.9823 41.6784C41.2384 42.9357 35.8816 44.7602 34.5374 45.0946C28.8811 46.5019 22.6208 45.6727 17.6001 42.773C16.0884 45.4921 14.6638 48.1528 13.0702 50.8568C11.512 53.501 9.0935 58.6012 5.72239 59.1238C3.0453 59.5389 0.447937 57.6231 0.0586619 55.0222C-0.264703 52.8619 0.795151 51.7426 2.09878 50.1599L4.03567 47.8353C6.72266 44.6418 9.53569 41.5294 12.0731 38.2217ZM40.4327 16.5228C39.3316 19.2792 38.3165 22.9767 38.3401 25.9517C39.8639 25.9461 40.393 25.7237 41.6965 24.9993C45.8135 22.7112 46.6672 25.4883 49.2867 25.7032C50.8729 25.8335 52.3344 24.9798 53.973 24.8352C55.8326 24.7899 56.3933 25.4713 57.9563 25.6871C58.1277 22.503 56.9378 19.5129 55.9248 16.5516L45.9065 16.5501C44.0904 16.5503 42.2456 16.6166 40.4327 16.5228ZM44.2874 26.3028C42.0854 26.6727 41.4917 28.1168 38.4211 28.1348C39.5816 34.6101 44.9276 40.2269 51.8893 36.8275C55.1923 35.0168 57.0738 31.6731 57.729 28.1309C56.3849 28.0972 56.065 26.918 54.5473 26.9004C52.5172 26.8769 50.7524 28.126 48.6787 27.7645C46.9893 27.4701 46.0577 26.1443 44.2874 26.3028ZM47.7866 57.0734C46.5865 57.284 44.4503 58.0915 43.528 58.8825C44.8165 59.2153 46.6562 59.1752 48.0088 59.1927C49.4043 59.1834 50.8989 59.2029 52.2619 58.8899C51.412 58.2699 48.8367 56.9002 47.7866 57.0734Z" fill="#111111"/>
<path d="M29.543 12.3958C28.9792 13.7036 28.3012 14.9643 27.6798 16.2467C26.9642 17.7232 26.2712 19.949 24.6833 20.7801C23.3376 21.4844 21.6217 20.9287 20.9303 19.6178C20.1815 18.1979 20.9919 16.9161 21.6499 15.6628C22.1619 14.6874 24.5553 9.14627 25.2301 8.8232C27.7323 8.62668 26.4501 10.651 25.8974 11.8141C25.1002 13.4913 23.2014 16.8385 22.7722 18.3724C23.4133 20.2558 24.6617 17.5044 24.9314 16.971C25.6099 15.6289 26.2909 14.2818 26.9123 12.9135C27.2185 12.2392 27.6687 10.5265 28.3569 10.1643C28.8612 9.89891 29.7115 10.1108 29.9475 10.6466C30.173 11.1584 29.7447 11.9163 29.543 12.3958Z" fill="#111111"/>
</svg>
