<svg width="60" height="62" viewBox="0 0 60 62" fill="none" xmlns="http://www.w3.org/2000/svg">
<path d="M37.5009 11.6756C39.409 9.46253 40.8645 6.33597 40.0984 3.50765C39.8544 2.6067 38.6466 1.26444 40.0522 0.729369C41.6655 0.584607 42.0856 2.71471 42.2795 3.86573C42.8601 7.31342 41.0133 10.4296 38.8961 13.1174C40.2866 14.393 45.6823 19.1855 46.1812 20.118C50.1873 20.1894 54.4678 19.4021 57.5471 22.1943C59.1019 23.6043 59.9545 25.4852 59.9697 27.4919V52.0682C59.9705 53.0896 60.0786 54.1969 59.8817 55.2012C59.2968 58.1858 56.8543 60.5825 53.5956 61.127C52.2322 61.3549 50.7258 61.2566 49.3448 61.2564L18.4414 61.2581L11.2187 61.2567C8.01409 61.2574 5.24854 61.5271 2.69524 59.3935C-0.750015 56.5144 0.0903446 52.0517 0.0903446 48.143L0.0894886 30.3244C0.0893461 28.978 -0.0323946 27.5255 0.236321 26.2017C1.17148 21.5944 5.15744 20.1272 9.62325 20.1237L12.6761 20.1272C13.2286 20.1302 13.781 20.1569 14.3334 20.1364C15.9427 18.1773 17.8857 16.5752 19.7717 14.8493C22.7013 12.1685 26.0006 7.87714 30.4261 7.92991C33.5842 7.96755 35.45 9.73676 37.5009 11.6756ZM30.055 9.82598C26.9911 10.1332 25.5466 12.2346 23.4998 14.0947L20.1616 17.1614C19.0956 18.1242 17.9692 19.0698 17.0238 20.138C19.4892 20.1011 21.9576 20.1253 24.4235 20.1253L37.4483 20.1257C39.4933 20.1257 41.5402 20.1452 43.5846 20.1144C43.0162 19.7186 42.5147 19.1743 42.0159 18.7048L39.3035 16.2273C38.7397 15.7117 38.151 15.2052 37.6239 14.657C36.7022 16.2077 35.3659 17.6162 33.4663 18.1328C28.8661 19.3837 27.2213 13.6268 30.3745 12.9562C31.198 12.7811 32.0742 13.6293 31.5104 14.3088C31.3165 14.5423 30.7659 14.84 30.791 15.1473C30.8576 15.9633 31.7774 16.4987 32.6052 16.357C34.1138 16.099 35.5643 14.4226 36.2484 13.1862C34.6503 11.7215 32.5834 9.487 30.055 9.82598ZM13.9121 22.0455L10.1573 22.0442C7.74124 22.0428 5.78283 21.9418 3.92948 23.6409C1.92188 25.4814 2.13429 27.6342 2.137 30.0448L2.13871 52.988C2.14185 54.8136 2.3725 56.4655 3.8478 57.8161C5.93636 59.7285 8.76436 59.3689 11.4457 59.3683L46.3181 59.3626L49.6888 59.3689C51.0573 59.3707 52.62 59.4764 53.9375 59.1057C57.8201 58.0128 57.9444 54.9795 57.9442 52.0154L57.9429 28.4075C57.9314 26.3732 57.7593 25.0831 56.1138 23.5774C53.9987 21.6423 51.6284 22.0444 48.9073 22.0445L22.7226 22.0457C19.7949 22.0456 16.8359 21.9411 13.9121 22.0455Z" fill="#111111"/>
<path d="M26.8799 35.4654C22.1881 34.2256 18.9618 38.3017 18.2124 38.3663C15.7801 38.5759 17.9145 34.3243 18.4419 33.5445C19.7461 31.6159 21.8307 30.1674 24.3445 30.0186C26.4696 29.9433 28.1735 30.9138 29.7099 32.1714C35.092 27.4692 40.9623 31.1914 42.3601 36.8851C42.5167 37.5228 42.3842 38.2645 41.5634 38.3763C40.4262 38.5312 38.5709 34.6726 31.9433 35.474C32.7065 35.861 35.1182 37.4834 34.4642 38.51C33.4776 40.0587 31.6646 37.6744 30.72 37.0388C31.4744 39.0223 32.2 41.0526 32.7833 43.084C34.9256 43.4609 38.5354 44.65 40.5186 45.3865C42.6115 46.1638 42.8686 46.4013 45.1368 46.7946C46.7835 47.0801 51.643 48.3009 52.2767 49.7402C52.4916 50.2285 52.1037 50.8539 51.5791 51.0081C50.971 51.1866 50.3586 50.5999 49.8844 50.337C45.9881 48.1764 41.5871 48.9882 37.3951 49.9512C36.3686 50.187 33.3822 51.2599 32.4567 50.751C31.6063 50.2832 31.9394 49.4127 32.6834 49.0803C33.4208 48.7507 35.4703 48.3971 36.379 48.1819C37.6052 47.8918 38.8594 47.5341 40.1086 47.3498C32.9039 44.489 26.3601 43.3376 19.0248 46.2686C17.2132 46.9925 11.3635 50.2203 9.60339 50.1726C8.61834 50.1459 8.19097 49.0591 8.95591 48.4951C9.55407 48.0543 12.1305 47.336 13.105 46.9286C14.3721 46.3988 15.5328 45.6724 16.7871 45.1103C20.9332 43.2523 25.7959 42.1038 30.4191 42.6586C30.2151 42.0404 30.0597 41.4043 29.8728 40.7808L28.751 37.1646C27.1245 37.6952 26.7982 38.3708 25.6302 39.1356C24.674 39.7617 24.0118 38.8357 24.2264 38.0063C24.5308 36.8284 25.8449 36.0609 26.8799 35.4654ZM20.1645 34.6638C20.6996 34.484 21.1958 34.1622 21.7339 33.9665C24.2551 33.0502 25.9286 33.3363 28.3909 33.8189C28.1154 33.5808 27.8371 33.3462 27.5553 33.1145C24.9492 31.0604 21.7096 31.9891 20.1645 34.6638ZM34.5142 31.9915C32.9905 32.1137 32.0479 32.7563 31.0521 33.7817C32.8232 33.3715 34.6708 33.2501 36.4618 33.6352C37.401 33.8674 38.2691 34.1818 39.1447 34.5696C38.0283 33.1024 36.564 31.8459 34.5142 31.9915Z" fill="#111111"/>
<path d="M34.2111 56.7321C30.8932 56.7583 29.0493 54.6468 26.3755 54.388C23.7969 54.1382 21.8098 56.3314 19.2289 56.3658C16.3912 56.4034 14.8117 54.1961 11.9865 54.5562C10.0464 54.8035 8.73186 56.4592 6.94294 56.7478C6.15234 56.8754 4.96101 56.1633 5.63586 55.3815C6.03815 54.9154 7.30746 54.5701 7.91388 54.2093C14.7321 50.1523 15.6353 54.7034 19.2731 54.465C21.2108 54.3381 23.0535 52.6461 25.758 52.4289C28.7372 52.1695 30.8844 54.6351 33.7476 54.8235C36.7897 55.0238 38.3649 52.9868 41.2102 52.7093C44.9501 52.3445 46.5745 54.8301 49.5734 54.725C51.6604 54.6517 52.6605 53.1392 53.6529 53.0289C54.1826 52.9701 54.6622 53.2607 54.6994 53.7702C54.7945 55.0668 52.6562 55.961 51.5902 56.2717C46.8163 57.6636 44.9421 54.3115 41.5049 54.613C39.1788 54.8171 37.5595 56.6022 34.2111 56.7321Z" fill="#111111"/>
</svg>
