<svg width="60" height="62" viewBox="0 0 60 62" fill="none" xmlns="http://www.w3.org/2000/svg">
<path d="M30.1982 61.2762C22.3664 61.3596 14.7149 58.0137 9.07583 52.5526C-10.3754 33.7153 3.71063 1.26681 29.8401 0.728777C45.2875 0.383176 59.5686 14.0274 59.9879 29.67C60.4549 47.0865 47.3633 60.8386 30.1982 61.2762ZM29.1277 3.08966C27.0393 3.21057 21.8139 3.71718 20.4375 5.31288C19.9941 5.82702 20.0029 6.76919 19.9384 7.42523C24.4491 8.05903 27.095 11.3825 30.8092 11.0511C34.0594 10.8005 36.0316 8.13796 40.1557 7.5422C39.7639 5.03339 40.1047 4.95714 37.6363 4.21553C35.0971 3.45257 31.7756 2.81795 29.1277 3.08966ZM42.399 6.12284C42.4437 6.69008 42.5047 7.26091 42.5276 7.82923C48.4467 9.94732 53.7695 15.6477 52.5102 22.3714C52.1022 24.5501 51.4442 24.1732 50.4741 25.8541C48.8068 28.7429 49.4368 33.3861 50.6174 36.3429C51.397 38.2957 52.1027 39.9822 54.3992 39.8263C55.0789 39.7357 55.7139 39.5974 56.3368 39.2987C60.2344 27.7087 55.4879 15.4317 45.8219 8.36812C44.7173 7.56086 43.5301 6.88849 42.399 6.12284ZM17.5087 6.2468C12.3228 9.16786 8.40145 13.0097 5.54928 18.2753C5.15214 19.0085 3.5455 22.072 3.64376 22.768L3.69609 22.7628C4.69452 22.065 5.78572 21.3743 6.94628 20.9949C7.458 14.5262 11.4306 9.71985 17.5871 7.65342C17.5981 7.42882 17.7707 6.26887 17.5087 6.2468ZM18.8268 9.85924C14.0989 10.4776 8.82431 16.2487 9.43394 21.3542C9.51287 22.0163 11.0952 24.1111 11.5124 24.96C12.0569 26.0679 12.4065 27.243 12.7138 28.4359C13.9534 29.2681 17.0115 30.0932 18.4624 30.1577L18.7778 29.7521C21.0482 27.0636 25.2087 23.0315 28.4821 21.7347C28.5057 19.0077 28.4409 16.2727 28.5151 13.5474C25.0996 12.6212 22.6163 9.58674 18.8268 9.85924ZM39.6261 10.0794C36.7335 10.5998 34.522 13.0765 30.9378 13.5544C30.7759 16.1857 30.8247 19.0377 30.8947 21.6786C34.1046 23.3553 36.9377 25.4273 39.4468 28.0675C39.8166 28.4564 41.3351 30.2211 41.7056 30.2327C43.3547 30.0029 45.7347 29.1924 47.0487 28.1299C47.2879 27.5417 47.3704 26.903 47.5934 26.3101C47.9013 25.4908 48.8939 23.3652 49.3341 22.4975C49.6094 21.9552 50.2728 21.5747 50.3739 20.9391C51.1311 16.1746 44.44 9.73026 39.6261 10.0794ZM7.11212 23.6359C5.97339 23.99 3.73298 25.4614 2.78368 26.2646C2.09015 29.9251 2.30991 33.5197 3.0712 37.1437C3.48253 39.1012 3.41956 40.2068 5.68852 40.2253C9.64661 40.0317 10.4638 33.1882 10.3064 30.2512C10.2218 28.6706 9.37044 23.4411 7.11212 23.6359ZM29.4342 24.0334C27.5023 24.8063 21.3809 29.4924 20.4437 31.6187C19.8389 32.9907 22.0191 39.1502 22.6474 40.6707C24.3025 44.6757 26.6972 44.7164 30.5286 44.7103C33.3045 44.6868 35.5304 44.2204 36.8376 41.5933C37.8471 39.5649 39.5371 34.1469 39.599 31.9185C38.4441 30.0132 31.6631 23.7218 29.4342 24.0334ZM12.7498 31.061C12.5415 36.336 11.1468 42.7908 4.79509 42.5782C7.02752 46.7355 10.8927 53.556 16.3309 53.0953C21.4086 52.7234 21.3797 49.3734 24.3459 46.2843C23.6158 45.8385 22.8657 45.4175 22.2793 44.7788C20.2057 42.5195 18.339 36.0022 17.8721 32.6063C16.2518 32.2821 14.2766 31.7016 12.7498 31.061ZM47.0045 31.2131C45.317 31.6768 43.7277 32.3054 41.9909 32.6025C41.2512 37.1372 39.6343 44.1868 35.3661 46.2459C36.9884 47.922 39.1307 52.0247 40.4779 52.767C41.3832 53.2659 42.7459 53.0984 43.7529 53.053C44.7338 52.9782 45.8627 53.0657 46.8083 52.8176C49.6296 52.0772 54.1347 44.7623 55.3123 42.2049C50.379 43.3561 48.3566 38.3652 47.4405 34.3234C47.3349 33.8579 47.1175 31.3575 47.0045 31.2131ZM29.9761 47.2021C28.0523 47.2876 26.6117 47.3388 25.2255 48.8557C22.6022 51.7269 22.158 55.2796 17.1839 55.4906L17.0926 55.4942C21.2701 57.6442 24.7956 58.9595 29.5653 58.9656C34.3136 58.9209 38.175 57.8212 42.3954 55.7044C35.0403 55.0383 36.5787 47.6882 31.7161 47.2512C31.143 47.1997 30.5515 47.1961 29.9761 47.2021Z" fill="#111111"/>
</svg>
