<svg width="60" height="62" viewBox="0 0 60 62" fill="none" xmlns="http://www.w3.org/2000/svg">
<path d="M28.2821 22.4092C28.968 21.7911 29.5893 21.109 30.2293 20.4446C32.2918 18.3039 34.4122 16.2108 36.5003 14.0945L47.0372 3.39939C48.2715 2.14353 49.0456 1.02459 50.8871 0.738535C53.3835 0.522411 54.7212 2.51478 56.2966 4.09243L58.0042 5.79675C58.4698 6.26105 58.9997 6.72413 59.3559 7.28025C60.9817 9.81781 59.2118 11.7275 57.5582 13.414L43.1341 27.9279C41.5827 29.4951 39.8661 30.9737 38.4378 32.6466C39.8402 34.1435 41.3523 35.5605 42.8022 37.0134L51.6181 45.8197C53.2471 47.4322 56.2144 50.0892 57.5195 51.91C60.1236 55.5435 58.1785 60.7128 53.8049 61.1392C50.1633 61.4941 47.8393 58.0903 45.55 55.8307L32.5942 42.9356C31.8953 42.2365 31.2039 41.5112 30.4369 40.8858C27.166 43.7592 23.8828 47.383 20.8026 50.4899C17.5379 53.783 15.4253 55.7054 11.3747 57.9907C9.16469 59.1744 -0.039987 64.4996 0.000130734 58.4158C0.0221435 55.0787 3.67693 48.3284 5.55642 45.7549C7.39246 43.241 9.78148 41.0638 11.98 38.87L20.2294 30.6107C18.4545 28.9226 16.7812 27.1094 15.0909 25.3368C12.6395 22.7661 10.3402 20.6978 8.59039 17.4985C8.1131 16.6256 7.90363 15.6306 7.5526 14.7037C6.65993 12.3466 5.40434 10.1601 4.00869 8.06963C3.64919 7.53113 2.95792 6.79709 2.88113 6.12906C2.78794 5.3181 3.65137 4.67233 4.37899 5.04359C4.77866 5.24745 5.14786 5.56501 5.51761 5.8197C7.45969 7.15673 9.51517 8.29467 11.6949 9.20115C13.0561 9.76725 14.5418 10.2362 15.8116 10.99C20.1315 13.5546 24.5044 18.8835 28.2821 22.4092ZM51.1822 2.78847C49.9801 2.96419 49.0409 4.26528 48.2688 5.10357C50.6368 7.39203 52.9484 9.75796 55.3606 11.9976L55.7068 12.3279C59.1022 8.87704 58.2759 9.02502 55.3047 6.04571C54.3154 5.0537 52.6646 2.81033 51.1822 2.78847ZM46.7409 6.73137C46.3458 7.12052 45.9231 7.47756 45.5028 7.83884C47.9106 10.4362 50.3761 12.7272 52.9012 15.1633C53.3239 14.731 53.7755 14.3049 54.1652 13.8428C53.2622 12.8906 47.7269 7.21098 46.7409 6.73137ZM44.0187 9.47579C42.8197 10.7814 41.5041 11.9975 40.257 13.2584L33.1843 20.4337C32.0435 21.5801 30.8523 22.6922 29.7629 23.8867C30.3997 24.5845 31.9032 26.2367 32.6626 26.7626L32.734 26.7403L45.4388 13.9338C45.962 13.405 46.5203 12.8771 46.9942 12.3038C46.0393 11.3347 45.0967 10.31 44.0187 9.47579ZM9.2382 10.4524C8.90999 10.6553 8.59339 10.8729 8.27611 11.0927C8.77936 12.3689 9.51107 14.2491 10.0933 15.4531C10.4486 15.2315 10.7743 15.0025 11.0685 14.7028C11.8383 13.8722 12.2958 12.9368 12.6671 11.8748C12.0026 11.5915 9.75798 10.4782 9.2382 10.4524ZM14.5471 12.6807C13.818 14.809 12.8492 16.1355 10.9995 17.413C12.2253 20.0343 20.3684 27.9227 22.8451 30.4196L41.4232 48.965C42.5459 50.0813 47.0281 54.1977 47.5473 55.2677C48.2309 55.18 48.9147 55.1061 49.5783 54.9125C51.5774 54.248 53.0732 52.6459 53.5075 50.5927C51.8119 48.8567 49.9216 47.1321 48.179 45.4128L21.8206 18.9175C19.5844 16.6666 17.3456 14.2441 14.5471 12.6807ZM48.4188 13.9441L36.3858 25.9843C35.6226 26.745 34.8279 27.4836 34.119 28.2964C34.5412 28.744 36.6623 30.9357 37.0263 31.1179L37.0756 31.0964C37.9899 30.2644 38.8272 29.3482 39.7033 28.4767L48.5645 19.5977C49.522 18.641 50.4941 17.6838 51.3791 16.6588C50.9084 16.1958 48.9232 14.1191 48.4188 13.9441ZM21.6908 32.1453L13.3877 40.3816C11.0662 42.6971 7.39738 46.0148 5.89091 48.8925C8.45839 50.5699 10.5284 52.4088 12.116 55.0695C14.412 54.0519 16.2835 52.1242 18.0458 50.388L26.397 42.0319C27.2768 41.1487 28.1256 40.2317 29.0078 39.3526C28.0473 38.4139 27.0821 37.4793 26.1375 36.5246C22.2938 40.177 18.5975 43.9824 14.8495 47.7325C14.3361 48.2462 13.4425 49.5656 12.6319 49.5477C12.0429 49.5347 11.5327 49.02 11.5832 48.4224C11.653 47.5966 12.7861 46.8374 13.3262 46.3056L22.299 37.3589C23.0866 36.5713 23.8571 35.7574 24.6574 34.984C23.8236 34.2359 22.5347 32.7066 21.6908 32.1453ZM4.84425 50.7993C4.14738 52.2563 3.48631 53.7845 2.92581 55.2987C4.67345 55.5145 5.7182 56.5756 6.3074 58.1641C6.82472 57.994 7.33001 57.767 7.82178 57.5335C8.68836 57.1012 9.56764 56.6625 10.3705 56.1174C9.16414 54.0321 7.06616 51.7945 4.84425 50.7993ZM55.0865 52.2086C54.4921 54.7397 51.9745 56.4167 49.5891 57.0337C50.202 57.6272 50.8278 58.2774 51.5993 58.6632C54.5425 60.0893 57.4676 57.3384 56.3511 54.2235C56.0781 53.4616 55.5945 52.8281 55.0865 52.2086ZM2.3347 57.2944C1.82271 58.7071 2.2959 59.7184 3.93067 59.1125C4.91817 58.4525 3.39217 57.2651 2.3347 57.2944Z" fill="#111111"/>
</svg>
